<svg xmlns="http://www.w3.org/2000/svg" width="90.308" height="93.426" viewBox="0 0 90.308 93.426">
  <g id="Minimalist_icon" data-name="Minimalist icon" transform="translate(1.5)">
    <path id="Path_4" data-name="Path 4" d="M75.928,373.832a.527.527,0,0,0-1.027,0c-3.49,14.609-23.6,41.963-23.6,54.126a24.113,24.113,0,0,0,48.226,0C99.528,415.795,79.418,388.441,75.928,373.832Z" transform="translate(-31.761 -373.424)" fill="#4f46e5"/>
    <path id="Path_5" data-name="Path 5" d="M94.93,478.462c4.661,1.815,7.71,2.991,7.71,4.7,0,4.847-14.354,8.777-32.061,8.777s-32.061-3.93-32.061-8.777c0-2.33,4.245-4.187,7.945-5.784" transform="translate(-27.516 -407.943)" fill="none" stroke="#4f46e5" stroke-linecap="round" stroke-miterlimit="10" stroke-width="3"/>
    <path id="Path_6" data-name="Path 6" d="M89.893,470.961c16,4.513,19.416,8.405,19.462,11.174.123,7.281-22.937,15.235-43.654,15.235-24.109,0-43.653-6.821-43.653-15.235,0-5.832,13.231-10.631,17.81-12.28" transform="translate(-22.047 -405.444)" fill="none" stroke="#4f46e5" stroke-linecap="round" stroke-miterlimit="10" stroke-width="3"/>
    <path id="Path_7" data-name="Path 7" d="M77.785,475.2a18.616,18.616,0,0,1-18.616-18.616" transform="translate(-34.374 -401.039)" fill="none" stroke="#fff" stroke-linecap="round" stroke-miterlimit="10" stroke-width="2"/>
  </g>
</svg>
